# xmcd
#
# Track frame offsets: 
#        150
#        18015
#        39107
#        60910
#        79685
#        104092
#        120925
#        144217
#        161427
#        186462
#        198817
#        213990
#        228632
#        250682
#        270437
#        294275
#
# Disc length: 4199 seconds
#
# Revision: 1
# Processed by: cddbd v1.5.2PL0 Copyright (c) Steve Scherf et al.
# Submitted via: ExactAudioCopyFreeDBPlugin 1.0
#
DISCID=c6106510
DTITLE=Luce Dufault - Soir De Première
DYEAR=2000
DGENRE=Blues\Rock
TTITLE0=I Keep Forgetting
TTITLE1=Coeur Fidèle
TTITLE2=Damn Your Eyes
TTITLE3=Out of the Rain
TTITLE4=Famous Blue Raincoat
TTITLE5=Soirs De Scotch
TTITLE6=I Can't Make You Love Me
TTITLE7=La Chanson Des Vieux Amants
TTITLE8=La Serveuse Automate
TTITLE9=Shakey Ground
TTITLE10=Love is Alive
TTITLE11=Tous Ces Mots
TTITLE12=You've Got a Friend
TTITLE13=I've Got the Music In Me
TTITLE14=God Bless the Child
TTITLE15=Natural Woman
EXTD=
EXTT0=
EXTT1=
EXTT2=
EXTT3=
EXTT4=
EXTT5=
EXTT6=
EXTT7=
EXTT8=
EXTT9=
EXTT10=
EXTT11=
EXTT12=
EXTT13=
EXTT14=
EXTT15=
PLAYORDER=
